<?xml version="1.0" standalone="no"?>
<!DOCTYPE svg PUBLIC "-//W3C//DTD SVG 20010904//EN"
 "http://www.w3.org/TR/2001/REC-SVG-20010904/DTD/svg10.dtd">
<svg version="1.0" xmlns="http://www.w3.org/2000/svg"
 width="331.000000pt" height="329.000000pt" viewBox="0 0 331.000000 329.000000"
 preserveAspectRatio="xMidYMid meet">

<g transform="translate(0.000000,329.000000) scale(0.100000,-0.100000)"
fill="currentColor" stroke="currentColor">
<path d="M50 1646 l0 -1623 52 -7 c77 -9 3054 -6 3111 3 60 10 81 29 71 64
l-6 27 -144 0 -145 0 -191 76 c-296 117 -420 186 -512 284 l-47 50 -102 -44
c-56 -24 -153 -66 -214 -94 -200 -91 -509 -183 -738 -222 -71 -12 -133 -24
-137 -26 -20 -13 -249 -23 -551 -25 l-338 -2 -23 24 -24 24 14 330 c21 544 80
877 228 1305 76 219 104 285 148 346 l32 45 -32 62 c-17 34 -68 107 -112 162
-49 60 -99 136 -125 190 -73 149 -142 408 -161 603 -6 67 -8 72 -30 72 l-24 0
0 -1624z"/>
<path d="M1503 1555 c-17 -7 -58 -38 -91 -68 -32 -30 -79 -66 -103 -80 -101
-59 -269 -106 -385 -107 l-51 0 -97 -212 c-145 -317 -230 -460 -361 -613 -33
-39 -92 -108 -132 -155 -39 -47 -83 -95 -97 -107 -31 -27 -33 -39 -6 -46 11
-3 20 -12 20 -21 0 -30 39 -18 53 17 15 34 164 181 274 270 195 157 469 310
646 362 116 34 119 37 143 177 27 159 118 358 225 494 27 34 49 64 49 67 0 10
-31 37 -43 37 -7 -1 -26 -7 -44 -15z"/>
</g>
</svg>
