<?xml version="1.0" standalone="no"?>
<!DOCTYPE svg PUBLIC "-//W3C//DTD SVG 20010904//EN"
 "http://www.w3.org/TR/2001/REC-SVG-20010904/DTD/svg10.dtd">
<svg version="1.0" xmlns="http://www.w3.org/2000/svg"
 width="331.000000pt" height="329.000000pt" viewBox="0 0 331.000000 329.000000"
 preserveAspectRatio="xMidYMid meet">

<g transform="translate(0.000000,329.000000) scale(0.100000,-0.100000)"
fill="currentColor" stroke="currentColor">
<path d="M3200 3115 l0 -146 -76 -191 c-118 -298 -188 -425 -287 -520 l-48
-46 71 -164 c151 -342 232 -586 276 -828 13 -74 31 -169 40 -210 13 -60 18
-157 22 -472 4 -356 3 -400 -12 -423 l-16 -24 -263 5 c-354 7 -626 36 -927
100 -112 24 -314 78 -355 95 -11 4 -87 31 -170 60 -159 55 -230 86 -282 125
-17 13 -40 24 -50 24 -31 0 -116 -53 -231 -144 -63 -49 -141 -101 -183 -120
-159 -73 -411 -140 -576 -154 -86 -7 -88 -7 -91 -34 l-3 -28 1625 0 1626 0 0
68 c0 37 0 755 0 1597 -1 1683 4 1575 -60 1575 l-30 0 0 -145z"/>
<path d="M1752 1548 c-30 -30 -2 -88 90 -185 86 -92 149 -259 164 -435 l7 -83
66 -29 c168 -75 458 -219 533 -265 46 -27 113 -74 149 -103 104 -83 301 -252
333 -287 34 -36 46 -39 46 -11 0 11 7 20 15 20 9 0 15 9 15 23 0 15 -12 29
-39 44 -41 24 -204 196 -282 298 -152 198 -286 443 -334 609 -21 70 -35 102
-51 113 -12 8 -70 23 -128 33 -107 20 -191 48 -301 103 -77 38 -183 108 -214
141 -27 28 -50 33 -69 14z"/>
</g>
</svg>
