<?xml version="1.0" standalone="no"?>
<!DOCTYPE svg PUBLIC "-//W3C//DTD SVG 20010904//EN"
 "http://www.w3.org/TR/2001/REC-SVG-20010904/DTD/svg10.dtd">
<svg version="1.0" xmlns="http://www.w3.org/2000/svg"
 width="331.000000pt" height="329.000000pt" viewBox="0 0 331.000000 329.000000"
 preserveAspectRatio="xMidYMid meet">

<g transform="translate(0.000000,329.000000) scale(0.100000,-0.100000)"
fill="currentColor" stroke="currentColor">
<path d="M1589 3251 c-1639 -6 -1539 -2 -1539 -62 l0 -29 145 0 146 0 191 -76
c298 -118 425 -188 520 -287 l46 -48 164 71 c342 151 586 232 828 276 74 13
169 31 210 40 60 13 157 18 472 22 356 4 400 3 423 -12 l24 -16 -5 -263 c-7
-354 -36 -626 -100 -927 -24 -112 -78 -314 -95 -355 -4 -11 -31 -87 -60 -170
-55 -159 -86 -230 -125 -282 -13 -17 -24 -40 -24 -50 0 -31 53 -116 144 -231
49 -63 101 -141 120 -183 73 -159 140 -411 154 -576 7 -86 7 -88 35 -91 l27
-3 0 1625 0 1626 -47 0 c-27 0 -70 2 -98 3 -27 2 -728 1 -1556 -2z"/>
<path d="M3073 3091 c-24 -41 -196 -204 -298 -282 -198 -152 -443 -286 -609
-334 -70 -21 -102 -35 -113 -51 -8 -12 -23 -70 -33 -128 -30 -163 -115 -355
-209 -472 -69 -85 -67 -82 -55 -101 27 -43 78 -24 179 68 110 100 263 160 447
175 l83 7 29 66 c75 168 219 458 265 533 27 46 74 113 103 149 83 104 252 301
287 333 36 34 39 46 11 46 -11 0 -20 7 -20 15 0 9 -9 15 -22 15 -16 0 -30 -12
-45 -39z"/>
</g>
</svg>
